<svg xmlns="http://www.w3.org/2000/svg" xmlns:xlink="http://www.w3.org/1999/xlink" version="1.1" x="0px" y="0px" viewBox="0 0 100 100" enable-background="new 0 0 100 100" xml:space="preserve"><g><path fill-rule="evenodd" clip-rule="evenodd" d="M50.071,24.743c6.475,0,11.733,5.208,11.733,11.625   c0,6.423-5.259,11.631-11.733,11.631c-6.48,0-11.733-5.208-11.733-11.631C38.338,29.951,43.591,24.743,50.071,24.743"></path><path fill-rule="evenodd" clip-rule="evenodd" d="M63.21,32.222l0.093,0.092c14.102-2.42,26.854-9.807,35.923-20.8l0.012-0.023   C99.729,10.934,100,10.229,100,9.5c0-1.697-1.425-3.067-3.171-3.067c-0.179,0-0.351,0.011-0.528,0.04l-0.092-0.109   c-14.134,2.294-26.954,9.589-36.106,20.53l0.172,0.029c1.422,1.543,2.474,3.384,3.083,5.396L63.21,32.222z"></path><path fill-rule="evenodd" clip-rule="evenodd" d="M3.596,6.535l0.098-0.062c-0.175-0.029-0.35-0.04-0.522-0.04   C1.423,6.433,0,7.803,0,9.5c0,0.7,0.247,1.382,0.703,1.928l0.043,0.045C9.758,22.49,22.476,29.894,36.543,32.313l-0.006,0.006   c0.608-2.002,1.663-3.842,3.088-5.38l-0.005-0.046C30.51,15.952,17.732,8.657,3.646,6.363L3.596,6.535z"></path><path fill-rule="evenodd" clip-rule="evenodd" d="M52.953,49.874v0.022c-1.001,0.195-2.026,0.299-3.062,0.299   c-1.063,0-2.124-0.109-3.165-0.321l-0.089,0.132c-2.392,6.526-3.613,13.425-3.613,20.376c0,7.197,1.308,14.332,3.866,21.059   l0.04,0.086c0.464,1.273,1.646,2.11,2.961,2.11c1.316,0,2.498-0.837,2.968-2.11l-0.062-0.086   c2.552-6.727,3.859-13.861,3.859-21.059c0-6.951-1.221-13.85-3.607-20.376L52.953,49.874z"></path></g></svg>